<svg width="1200" height="800" viewBox="0 0 1200 800" fill="none" xmlns="http://www.w3.org/2000/svg"><rect width="1200" height="800" rx="48" fill="#121212"/><circle cx="600" cy="330" r="170" stroke="#FFB84D" stroke-width="8" opacity="0.9"/><circle cx="600" cy="330" r="110" stroke="#FFD98A" stroke-width="6" opacity="0.55"/><circle cx="600" cy="330" r="48" fill="#FFB84D"/><path d="M600 330 L770 250" stroke="#FFB84D" stroke-width="14" stroke-linecap="round"/><path d="M600 330 L720 430" stroke="#FFD98A" stroke-width="14" stroke-linecap="round"/><path d="M600 330 L430 280" stroke="#FFB84D" stroke-width="14" stroke-linecap="round"/><path d="M770 250 C840 230 905 255 950 320" stroke="#FFB84D" stroke-width="10" stroke-linecap="round"/><path d="M720 430 C770 490 860 515 940 500" stroke="#FFD98A" stroke-width="10" stroke-linecap="round"/><path d="M430 280 C355 255 295 270 240 330" stroke="#FFB84D" stroke-width="10" stroke-linecap="round"/><circle cx="770" cy="250" r="14" fill="#FFB84D"/><circle cx="720" cy="430" r="14" fill="#FFD98A"/><circle cx="430" cy="280" r="14" fill="#FFB84D"/><text x="130" y="700" fill="#FFF8EE" font-size="124" font-family="Inter, Arial, sans-serif" font-weight="700" letter-spacing="-6">Crawbot</text><text x="136" y="748" fill="#C6B79D" font-size="34" font-family="Inter, Arial, sans-serif">Continuous web discovery engine</text></svg>