<?xml version="1.0" encoding="UTF-8"?>
<svg xmlns="http://www.w3.org/2000/svg" xmlns:xlink="http://www.w3.org/1999/xlink" width="1280" height="720" viewBox="0 0 1280 720">
<defs>
<g>
<g id="glyph-0-0">
<path d="M 0.765625 0 L 0.765625 -0.84375 L 1.015625 -0.84375 C 1.460938 -0.84375 1.847656 -0.914062 2.171875 -1.0625 C 2.492188 -1.21875 2.65625 -1.59375 2.65625 -2.1875 L 2.65625 -12 C 2.65625 -12.625 2.492188 -13.019531 2.171875 -13.1875 C 1.859375 -13.351562 1.472656 -13.4375 1.015625 -13.4375 L 0.765625 -13.4375 L 0.765625 -14.28125 L 10.84375 -14.28125 L 10.9375 -10.78125 L 9.90625 -10.78125 L 9.796875 -11.640625 C 9.742188 -12.078125 9.585938 -12.457031 9.328125 -12.78125 C 9.066406 -13.113281 8.640625 -13.28125 8.046875 -13.28125 L 4.6875 -13.28125 L 4.6875 -7.953125 L 9.5 -7.953125 L 9.5 -6.984375 L 4.6875 -6.984375 L 4.6875 -1 L 8.546875 -1 C 9.171875 -1 9.625 -1.160156 9.90625 -1.484375 C 10.195312 -1.816406 10.375 -2.203125 10.4375 -2.640625 L 10.578125 -3.5 L 11.625 -3.5 L 11.484375 0 Z "/>
</g>
<g id="glyph-0-1">
<path d="M 5.453125 0.203125 C 4.398438 0.203125 3.585938 -0.101562 3.015625 -0.71875 C 2.441406 -1.34375 2.15625 -2.34375 2.15625 -3.71875 L 2.15625 -8.515625 C 2.15625 -9.109375 1.992188 -9.484375 1.671875 -9.640625 C 1.347656 -9.796875 0.960938 -9.875 0.515625 -9.875 L 0.453125 -9.875 L 0.453125 -10.71875 L 4.046875 -10.71875 L 4.046875 -3.8125 C 4.046875 -2.945312 4.191406 -2.273438 4.484375 -1.796875 C 4.773438 -1.316406 5.328125 -1.078125 6.140625 -1.078125 C 7.015625 -1.078125 7.648438 -1.375 8.046875 -1.96875 C 8.453125 -2.5625 8.65625 -3.34375 8.65625 -4.3125 L 8.65625 -8.4375 C 8.65625 -9.0625 8.492188 -9.457031 8.171875 -9.625 C 7.859375 -9.789062 7.472656 -9.875 7.015625 -9.875 L 6.953125 -9.875 L 6.953125 -10.71875 L 10.546875 -10.71875 L 10.546875 -2.1875 C 10.546875 -1.59375 10.707031 -1.21875 11.03125 -1.0625 C 11.351562 -0.914062 11.738281 -0.84375 12.1875 -0.84375 L 12.234375 -0.84375 L 12.234375 0 L 9.0625 0 L 8.796875 -1.625 L 8.703125 -1.625 C 8.285156 -0.875 7.800781 -0.378906 7.25 -0.140625 C 6.707031 0.0859375 6.109375 0.203125 5.453125 0.203125 Z "/>
</g>
<g id="glyph-0-2">
<path d="M 0.265625 0 L 0.265625 -0.84375 L 0.515625 -0.84375 C 0.972656 -0.84375 1.359375 -0.925781 1.671875 -1.09375 C 1.992188 -1.257812 2.15625 -1.65625 2.15625 -2.28125 L 2.15625 -13 C 2.15625 -13.582031 1.992188 -13.953125 1.671875 -14.109375 C 1.347656 -14.273438 0.960938 -14.359375 0.515625 -14.359375 L 0.265625 -14.359375 L 0.265625 -15.203125 L 4.046875 -15.203125 L 4.046875 -2.28125 C 4.046875 -1.65625 4.203125 -1.257812 4.515625 -1.09375 C 4.835938 -0.925781 5.226562 -0.84375 5.6875 -0.84375 L 5.9375 -0.84375 L 5.9375 0 Z "/>
</g>
<g id="glyph-0-3">
<path d="M 5.734375 0.203125 C 4.285156 0.203125 3.148438 -0.273438 2.328125 -1.234375 C 1.503906 -2.203125 1.09375 -3.550781 1.09375 -5.28125 C 1.09375 -7.144531 1.476562 -8.550781 2.25 -9.5 C 3.03125 -10.445312 4.128906 -10.921875 5.546875 -10.921875 C 6.835938 -10.921875 7.851562 -10.519531 8.59375 -9.71875 C 9.332031 -8.914062 9.703125 -7.722656 9.703125 -6.140625 L 9.703125 -5.21875 L 3.046875 -5.21875 C 3.066406 -3.769531 3.328125 -2.710938 3.828125 -2.046875 C 4.328125 -1.390625 5.054688 -1.0625 6.015625 -1.0625 C 6.710938 -1.0625 7.300781 -1.203125 7.78125 -1.484375 C 8.269531 -1.773438 8.632812 -2.097656 8.875 -2.453125 C 8.96875 -2.421875 9.054688 -2.34375 9.140625 -2.21875 C 9.222656 -2.101562 9.265625 -1.957031 9.265625 -1.78125 C 9.265625 -1.507812 9.132812 -1.21875 8.875 -0.90625 C 8.625 -0.601562 8.238281 -0.34375 7.71875 -0.125 C 7.195312 0.09375 6.535156 0.203125 5.734375 0.203125 Z M 7.6875 -6.296875 C 7.6875 -7.367188 7.519531 -8.226562 7.1875 -8.875 C 6.863281 -9.519531 6.300781 -9.84375 5.5 -9.84375 C 4.769531 -9.84375 4.203125 -9.535156 3.796875 -8.921875 C 3.390625 -8.316406 3.148438 -7.441406 3.078125 -6.296875 Z "/>
</g>
<g id="glyph-0-4">
<path d="M 0.65625 0 L 0.65625 -0.84375 L 0.71875 -0.84375 C 1.175781 -0.84375 1.5625 -0.925781 1.875 -1.09375 C 2.195312 -1.257812 2.359375 -1.65625 2.359375 -2.28125 L 2.359375 -8.515625 C 2.359375 -9.109375 2.191406 -9.484375 1.859375 -9.640625 C 1.535156 -9.796875 1.15625 -9.875 0.71875 -9.875 L 0.65625 -9.875 L 0.65625 -10.71875 L 3.734375 -10.71875 L 4.125 -8.734375 L 4.21875 -8.734375 C 4.394531 -9.140625 4.582031 -9.507812 4.78125 -9.84375 C 4.976562 -10.175781 5.242188 -10.4375 5.578125 -10.625 C 5.910156 -10.820312 6.367188 -10.921875 6.953125 -10.921875 C 7.691406 -10.921875 8.238281 -10.789062 8.59375 -10.53125 C 8.945312 -10.28125 9.125 -9.921875 9.125 -9.453125 C 9.125 -9.046875 8.976562 -8.707031 8.6875 -8.4375 C 8.40625 -8.175781 7.929688 -8.046875 7.265625 -8.046875 C 7.265625 -8.585938 7.179688 -8.976562 7.015625 -9.21875 C 6.859375 -9.46875 6.585938 -9.59375 6.203125 -9.59375 C 5.828125 -9.59375 5.507812 -9.445312 5.25 -9.15625 C 5 -8.863281 4.800781 -8.488281 4.65625 -8.03125 C 4.507812 -7.582031 4.398438 -7.113281 4.328125 -6.625 C 4.265625 -6.144531 4.234375 -5.707031 4.234375 -5.3125 L 4.234375 -2.1875 C 4.234375 -1.59375 4.394531 -1.21875 4.71875 -1.0625 C 5.050781 -0.914062 5.4375 -0.84375 5.875 -0.84375 L 6.4375 -0.84375 L 6.4375 0 Z "/>
</g>
<g id="glyph-0-5">
<path d="M 1.734375 -9.578125 L 1.140625 -14.28125 L 3.265625 -14.28125 L 2.65625 -9.578125 Z "/>
</g>
<g id="glyph-0-6">
<path d="M 4.203125 0.203125 C 3.203125 0.203125 2.398438 0.0234375 1.796875 -0.328125 C 1.203125 -0.691406 0.90625 -1.222656 0.90625 -1.921875 C 0.90625 -2.273438 0.976562 -2.550781 1.125 -2.75 C 1.269531 -2.957031 1.4375 -3.097656 1.625 -3.171875 C 1.820312 -3.253906 2 -3.296875 2.15625 -3.296875 C 2.15625 -2.609375 2.3125 -2.015625 2.625 -1.515625 C 2.9375 -1.015625 3.5 -0.765625 4.3125 -0.765625 C 5.019531 -0.765625 5.5625 -0.929688 5.9375 -1.265625 C 6.320312 -1.609375 6.515625 -2.046875 6.515625 -2.578125 C 6.515625 -2.910156 6.441406 -3.179688 6.296875 -3.390625 C 6.160156 -3.609375 5.914062 -3.820312 5.5625 -4.03125 C 5.21875 -4.238281 4.71875 -4.484375 4.0625 -4.765625 C 3.382812 -5.066406 2.820312 -5.359375 2.375 -5.640625 C 1.925781 -5.929688 1.59375 -6.265625 1.375 -6.640625 C 1.15625 -7.023438 1.046875 -7.503906 1.046875 -8.078125 C 1.046875 -8.984375 1.382812 -9.679688 2.0625 -10.171875 C 2.75 -10.660156 3.660156 -10.90625 4.796875 -10.90625 C 5.753906 -10.90625 6.476562 -10.722656 6.96875 -10.359375 C 7.46875 -9.992188 7.71875 -9.5625 7.71875 -9.0625 C 7.71875 -8.695312 7.59375 -8.40625 7.34375 -8.1875 C 7.101562 -7.96875 6.75 -7.859375 6.28125 -7.859375 C 6.28125 -8.523438 6.140625 -9.046875 5.859375 -9.421875 C 5.578125 -9.796875 5.144531 -9.984375 4.5625 -9.984375 C 3.882812 -9.984375 3.394531 -9.832031 3.09375 -9.53125 C 2.800781 -9.226562 2.65625 -8.84375 2.65625 -8.375 C 2.65625 -7.875 2.84375 -7.484375 3.21875 -7.203125 C 3.601562 -6.929688 4.242188 -6.617188 5.140625 -6.265625 C 5.847656 -5.960938 6.421875 -5.664062 6.859375 -5.375 C 7.296875 -5.082031 7.617188 -4.742188 7.828125 -4.359375 C 8.035156 -3.972656 8.140625 -3.5 8.140625 -2.9375 C 8.140625 -1.894531 7.78125 -1.109375 7.0625 -0.578125 C 6.34375 -0.0546875 5.390625 0.203125 4.203125 0.203125 Z "/>
</g>
<g id="glyph-0-7">
</g>
<g id="glyph-0-8">
<path d="M 0.765625 0 L 0.765625 -0.84375 L 1.015625 -0.84375 C 1.460938 -0.84375 1.847656 -0.914062 2.171875 -1.0625 C 2.492188 -1.21875 2.65625 -1.59375 2.65625 -2.1875 L 2.65625 -12.078125 C 2.65625 -12.660156 2.492188 -13.03125 2.171875 -13.1875 C 1.847656 -13.351562 1.460938 -13.4375 1.015625 -13.4375 L 0.765625 -13.4375 L 0.765625 -14.28125 L 10.84375 -14.28125 L 10.9375 -10.78125 L 9.90625 -10.78125 L 9.796875 -11.640625 C 9.742188 -12.085938 9.582031 -12.472656 9.3125 -12.796875 C 9.039062 -13.117188 8.585938 -13.28125 7.953125 -13.28125 L 4.6875 -13.28125 L 4.6875 -7.5 L 9.5 -7.5 L 9.5 -6.515625 L 4.6875 -6.515625 L 4.6875 -2.28125 C 4.6875 -1.65625 4.84375 -1.257812 5.15625 -1.09375 C 5.476562 -0.925781 5.863281 -0.84375 6.3125 -0.84375 L 6.984375 -0.84375 L 6.984375 0 Z "/>
</g>
<g id="glyph-0-9">
<path d="M 5.734375 0.203125 C 4.296875 0.203125 3.160156 -0.253906 2.328125 -1.171875 C 1.503906 -2.097656 1.09375 -3.5 1.09375 -5.375 C 1.09375 -7.25 1.488281 -8.640625 2.28125 -9.546875 C 3.082031 -10.460938 4.253906 -10.921875 5.796875 -10.921875 C 7.234375 -10.921875 8.363281 -10.460938 9.1875 -9.546875 C 10.019531 -8.640625 10.4375 -7.25 10.4375 -5.375 C 10.4375 -3.5 10.039062 -2.097656 9.25 -1.171875 C 8.457031 -0.253906 7.285156 0.203125 5.734375 0.203125 Z M 5.78125 -0.84375 C 6.78125 -0.84375 7.484375 -1.222656 7.890625 -1.984375 C 8.296875 -2.753906 8.5 -3.882812 8.5 -5.375 C 8.5 -6.875 8.289062 -7.992188 7.875 -8.734375 C 7.46875 -9.484375 6.765625 -9.859375 5.765625 -9.859375 C 4.765625 -9.859375 4.0625 -9.484375 3.65625 -8.734375 C 3.25 -7.992188 3.046875 -6.875 3.046875 -5.375 C 3.046875 -3.882812 3.25 -2.753906 3.65625 -1.984375 C 4.070312 -1.222656 4.78125 -0.84375 5.78125 -0.84375 Z "/>
</g>
<g id="glyph-0-10">
<path d="M 0.5625 0 L 0.5625 -0.84375 L 0.8125 -0.84375 C 1.269531 -0.84375 1.640625 -0.925781 1.921875 -1.09375 C 2.210938 -1.257812 2.359375 -1.65625 2.359375 -2.28125 L 2.359375 -8.515625 C 2.359375 -9.109375 2.210938 -9.484375 1.921875 -9.640625 C 1.628906 -9.796875 1.257812 -9.875 0.8125 -9.875 L 0.765625 -9.875 L 0.765625 -10.71875 L 3.90625 -10.71875 L 4.15625 -9.09375 L 4.265625 -9.09375 C 4.660156 -9.84375 5.109375 -10.332031 5.609375 -10.5625 C 6.109375 -10.800781 6.664062 -10.921875 7.28125 -10.921875 C 7.914062 -10.921875 8.492188 -10.78125 9.015625 -10.5 C 9.535156 -10.226562 9.925781 -9.757812 10.1875 -9.09375 L 10.34375 -9.09375 C 10.738281 -9.84375 11.207031 -10.332031 11.75 -10.5625 C 12.289062 -10.800781 12.867188 -10.921875 13.484375 -10.921875 C 14.503906 -10.921875 15.300781 -10.609375 15.875 -9.984375 C 16.445312 -9.367188 16.734375 -8.375 16.734375 -7 L 16.734375 -2.28125 C 16.734375 -1.65625 16.875 -1.257812 17.15625 -1.09375 C 17.445312 -0.925781 17.820312 -0.84375 18.28125 -0.84375 L 18.34375 -0.84375 L 18.34375 0 L 14.859375 0 L 14.859375 -6.90625 C 14.859375 -7.769531 14.703125 -8.441406 14.390625 -8.921875 C 14.078125 -9.398438 13.535156 -9.640625 12.765625 -9.640625 C 12.210938 -9.640625 11.769531 -9.5 11.4375 -9.21875 C 11.113281 -8.945312 10.882812 -8.582031 10.75 -8.125 C 10.613281 -7.675781 10.546875 -7.1875 10.546875 -6.65625 L 10.546875 -2.28125 C 10.546875 -1.65625 10.6875 -1.257812 10.96875 -1.09375 C 11.257812 -0.925781 11.628906 -0.84375 12.078125 -0.84375 L 12.140625 -0.84375 L 12.140625 0 L 8.65625 0 L 8.65625 -6.90625 C 8.65625 -7.769531 8.5 -8.441406 8.1875 -8.921875 C 7.875 -9.398438 7.332031 -9.640625 6.5625 -9.640625 C 5.988281 -9.640625 5.53125 -9.488281 5.1875 -9.1875 C 4.851562 -8.882812 4.609375 -8.488281 4.453125 -8 C 4.304688 -7.507812 4.234375 -6.976562 4.234375 -6.40625 L 4.234375 -2.1875 C 4.234375 -1.59375 4.394531 -1.21875 4.71875 -1.0625 C 5.050781 -0.914062 5.4375 -0.84375 5.875 -0.84375 L 5.9375 -0.84375 L 5.9375 0 Z "/>
</g>
<g id="glyph-0-11">
<path d="M 4.09375 0.203125 C 3.207031 0.203125 2.46875 -0.0546875 1.875 -0.578125 C 1.289062 -1.097656 1 -1.90625 1 -3 C 1 -4.0625 1.375 -4.847656 2.125 -5.359375 C 2.882812 -5.867188 4.03125 -6.148438 5.5625 -6.203125 L 7.21875 -6.265625 L 7.21875 -7.453125 C 7.21875 -7.941406 7.175781 -8.367188 7.09375 -8.734375 C 7.019531 -9.097656 6.847656 -9.382812 6.578125 -9.59375 C 6.316406 -9.8125 5.910156 -9.921875 5.359375 -9.921875 C 4.847656 -9.921875 4.457031 -9.828125 4.1875 -9.640625 C 3.925781 -9.453125 3.753906 -9.191406 3.671875 -8.859375 C 3.585938 -8.535156 3.546875 -8.160156 3.546875 -7.734375 C 2.984375 -7.734375 2.554688 -7.828125 2.265625 -8.015625 C 1.984375 -8.210938 1.84375 -8.539062 1.84375 -9 C 1.84375 -9.46875 2.003906 -9.84375 2.328125 -10.125 C 2.648438 -10.40625 3.082031 -10.609375 3.625 -10.734375 C 4.175781 -10.859375 4.78125 -10.921875 5.4375 -10.921875 C 6.664062 -10.921875 7.582031 -10.660156 8.1875 -10.140625 C 8.789062 -9.617188 9.09375 -8.722656 9.09375 -7.453125 L 9.09375 -2.28125 C 9.09375 -1.71875 9.1875 -1.335938 9.375 -1.140625 C 9.5625 -0.941406 9.882812 -0.84375 10.34375 -0.84375 L 10.40625 -0.84375 L 10.40625 0 L 7.703125 0 L 7.375 -1.71875 L 7.21875 -1.71875 C 6.9375 -1.34375 6.660156 -1.007812 6.390625 -0.71875 C 6.128906 -0.4375 5.820312 -0.210938 5.46875 -0.046875 C 5.113281 0.117188 4.65625 0.203125 4.09375 0.203125 Z M 4.5625 -1.046875 C 5.375 -1.046875 6.019531 -1.296875 6.5 -1.796875 C 6.976562 -2.296875 7.21875 -2.96875 7.21875 -3.8125 L 7.21875 -5.4375 L 5.9375 -5.375 C 4.800781 -5.320312 4.015625 -5.09375 3.578125 -4.6875 C 3.148438 -4.28125 2.9375 -3.6875 2.9375 -2.90625 C 2.9375 -1.664062 3.476562 -1.046875 4.5625 -1.046875 Z "/>
</g>
</g>
</defs>
<g fill="rgb(100%, 100%, 100%)" fill-opacity="1">
<use xlink:href="#glyph-0-0" x="30" y="41.379883"/>
<use xlink:href="#glyph-0-1" x="42" y="41.379883"/>
<use xlink:href="#glyph-0-2" x="55" y="41.379883"/>
<use xlink:href="#glyph-0-3" x="61" y="41.379883"/>
<use xlink:href="#glyph-0-4" x="72" y="41.379883"/>
<use xlink:href="#glyph-0-5" x="81" y="41.379883"/>
<use xlink:href="#glyph-0-6" x="85" y="41.379883"/>
<use xlink:href="#glyph-0-7" x="94" y="41.379883"/>
<use xlink:href="#glyph-0-8" x="99" y="41.379883"/>
<use xlink:href="#glyph-0-9" x="110" y="41.379883"/>
<use xlink:href="#glyph-0-4" x="122" y="41.379883"/>
<use xlink:href="#glyph-0-10" x="131" y="41.379883"/>
<use xlink:href="#glyph-0-1" x="150" y="41.379883"/>
<use xlink:href="#glyph-0-2" x="163" y="41.379883"/>
<use xlink:href="#glyph-0-11" x="169" y="41.379883"/>
</g>
</svg>
